<?xml version="1.0" encoding="UTF-8" standalone="no"?>
<!DOCTYPE svg PUBLIC "-//W3C//DTD SVG 1.1//EN"
 "http://www.w3.org/Graphics/SVG/1.1/DTD/svg11.dtd">
<!-- Generated by graphviz version 2.43.0 (0)
 -->
<!-- Title: ls::systems::SystemStateless Pages: 1 -->
<!--zoomable 198 -->
<svg id="main" version="1.1" xmlns="http://www.w3.org/2000/svg" xmlns:xlink="http://www.w3.org/1999/xlink" xml:space="preserve" onload="init(evt)">
<style type="text/css"><![CDATA[
.edge:hover path { stroke: red; }
.edge:hover polygon { stroke: red; fill: red; }
]]></style>
<script type="text/javascript"><![CDATA[
var edges = document.getElementsByTagName('g');
if (edges && edges.length) {
  for (var i=0;i<edges.length;i++) {
    if (edges[i].id.substr(0,4)=='edge') {
      edges[i].setAttribute('class','edge');
    }
  }
}
]]></script>
        <defs>
                <circle id="rim" cx="0" cy="0" r="7"/>
                <circle id="rim2" cx="0" cy="0" r="3.5"/>
                <g id="zoomPlus">
                        <use xlink:href="#rim" fill="#404040">
                                <set attributeName="fill" to="#808080" begin="zoomplus.mouseover" end="zoomplus.mouseout"/>
                        </use>
                        <path d="M-4,0h8M0,-4v8" fill="none" stroke="white" stroke-width="1.5" pointer-events="none"/>
                </g>
                <g id="zoomMin">
                        <use xlink:href="#rim" fill="#404040">
                                <set attributeName="fill" to="#808080" begin="zoomminus.mouseover" end="zoomminus.mouseout"/>
                        </use>
                        <path d="M-4,0h8" fill="none" stroke="white" stroke-width="1.5" pointer-events="none"/>
                </g>
                <g id="dirArrow">
                        <path fill="none" stroke="white" stroke-width="1.5" d="M0,-3.0v7 M-2.5,-0.5L0,-3.0L2.5,-0.5"/>
                </g>
               <g id="resetDef">
                       <use xlink:href="#rim2" fill="#404040">
                               <set attributeName="fill" to="#808080" begin="reset.mouseover" end="reset.mouseout"/>
                       </use>
               </g>
        </defs>

<script type="text/javascript">
var viewWidth = 553;
var viewHeight = 198;
var sectionId = 'dynsection-0';
</script>
<script xlink:href="svgpan.js"/>
<svg id="graph" class="graph">
<g id="viewport">
<title>ls::systems::SystemStateless</title>
<!-- Node1 -->
<g id="node1" class="node">
<title>Node1</title>
<g id="a_node1"><a xlink:title=" ">
<polygon fill="#bfbfbf" stroke="black" points="0,-62.5 0,-81.5 160,-81.5 160,-62.5 0,-62.5"/>
<text text-anchor="middle" x="80" y="-69.5" font-family="Helvetica,sans-Serif" font-size="10.00">ls::systems::SystemStateless</text>
</a>
</g>
</g>
<!-- Node2 -->
<g id="node2" class="node">
<title>Node2</title>
<g id="a_node2"><a xlink:href="classls_1_1systems_1_1_state_space.html" target="_top" xlink:title=" ">
<polygon fill="none" stroke="#bfbfbf" points="202,-137 202,-189 348,-189 348,-137 202,-137"/>
<text text-anchor="start" x="210" y="-177" font-family="Helvetica,sans-Serif" font-size="10.00">ls::systems::StateSpace</text>
<text text-anchor="start" x="210" y="-166" font-family="Helvetica,sans-Serif" font-size="10.00">&lt; double, Eigen::Dynamic,</text>
<text text-anchor="start" x="210" y="-155" font-family="Helvetica,sans-Serif" font-size="10.00"> Eigen::Dynamic, Eigen::</text>
<text text-anchor="middle" x="275" y="-144" font-family="Helvetica,sans-Serif" font-size="10.00">Dynamic &gt;</text>
</a>
</g>
</g>
<!-- Node1&#45;&gt;Node2 -->
<g id="edge1" class="edge">
<title>Node1&#45;&gt;Node2</title>
<path fill="none" stroke="midnightblue" d="M110.19,-86.1C133.41,-97.27 166.73,-113.25 196,-127 202.88,-130.23 210.12,-133.61 217.3,-136.94"/>
<polygon fill="midnightblue" stroke="midnightblue" points="111.43,-82.81 100.9,-81.62 108.39,-89.12 111.43,-82.81"/>
</g>
<!-- Node4 -->
<g id="node4" class="node">
<title>Node4</title>
<g id="a_node4"><a xlink:href="classls_1_1systems_1_1_state_space.html" target="_top" xlink:title=" ">
<polygon fill="none" stroke="#bfbfbf" points="201.5,-76.5 201.5,-117.5 348.5,-117.5 348.5,-76.5 201.5,-76.5"/>
<text text-anchor="start" x="209.5" y="-105.5" font-family="Helvetica,sans-Serif" font-size="10.00">ls::systems::StateSpace</text>
<text text-anchor="start" x="209.5" y="-94.5" font-family="Helvetica,sans-Serif" font-size="10.00">&lt; TScalar, TStateDim,</text>
<text text-anchor="middle" x="275" y="-83.5" font-family="Helvetica,sans-Serif" font-size="10.00"> TInputDim, TOutputDim &gt;</text>
</a>
</g>
</g>
<!-- Node1&#45;&gt;Node4 -->
<g id="edge3" class="edge">
<title>Node1&#45;&gt;Node4</title>
<path fill="none" stroke="midnightblue" d="M164.68,-82.84C176.89,-84.42 189.37,-86.04 201.33,-87.59"/>
<polygon fill="midnightblue" stroke="midnightblue" points="164.88,-79.34 154.52,-81.52 163.98,-86.28 164.88,-79.34"/>
</g>
<!-- Node5 -->
<g id="node5" class="node">
<title>Node5</title>
<g id="a_node5"><a xlink:href="classls_1_1systems_1_1_system_stateful.html" target="_top" xlink:title=" ">
<polygon fill="none" stroke="#bfbfbf" points="198.5,-38.5 198.5,-57.5 351.5,-57.5 351.5,-38.5 198.5,-38.5"/>
<text text-anchor="middle" x="275" y="-45.5" font-family="Helvetica,sans-Serif" font-size="10.00">ls::systems::SystemStateful</text>
</a>
</g>
</g>
<!-- Node1&#45;&gt;Node5 -->
<g id="edge4" class="edge">
<title>Node1&#45;&gt;Node5</title>
<path fill="none" stroke="midnightblue" d="M167.74,-61.21C178,-59.94 188.4,-58.64 198.48,-57.39"/>
<polygon fill="midnightblue" stroke="midnightblue" points="167.05,-57.77 157.56,-62.48 167.91,-64.72 167.05,-57.77"/>
</g>
<!-- Node7 -->
<g id="node7" class="node">
<title>Node7</title>
<g id="a_node7"><a xlink:href="classls_1_1systems_1_1_transfer_function.html" target="_top" xlink:title=" ">
<polygon fill="none" stroke="#bfbfbf" points="196,-0.5 196,-19.5 354,-19.5 354,-0.5 196,-0.5"/>
<text text-anchor="middle" x="275" y="-7.5" font-family="Helvetica,sans-Serif" font-size="10.00">ls::systems::TransferFunction</text>
</a>
</g>
</g>
<!-- Node1&#45;&gt;Node7 -->
<g id="edge6" class="edge">
<title>Node1&#45;&gt;Node7</title>
<path fill="none" stroke="#8b1a1a" d="M113.61,-58.63C136.44,-49.55 167.78,-37.68 196,-29 207.19,-25.56 219.43,-22.33 230.84,-19.54"/>
<polygon fill="#8b1a1a" stroke="#8b1a1a" points="112.05,-55.48 104.07,-62.45 114.65,-61.98 112.05,-55.48"/>
</g>
<!-- Node3 -->
<g id="node3" class="node">
<title>Node3</title>
<g id="a_node3"><a xlink:href="classls_1_1systems_1_1_discrete_state_space.html" target="_top" xlink:title=" ">
<polygon fill="none" stroke="#bfbfbf" points="390.5,-142.5 390.5,-183.5 544.5,-183.5 544.5,-142.5 390.5,-142.5"/>
<text text-anchor="start" x="398.5" y="-171.5" font-family="Helvetica,sans-Serif" font-size="10.00">ls::systems::DiscreteState</text>
<text text-anchor="start" x="398.5" y="-160.5" font-family="Helvetica,sans-Serif" font-size="10.00">Space&lt; TScalar, TStateDim,</text>
<text text-anchor="middle" x="467.5" y="-149.5" font-family="Helvetica,sans-Serif" font-size="10.00"> TInputDim, TOutputDim &gt;</text>
</a>
</g>
</g>
<!-- Node2&#45;&gt;Node3 -->
<g id="edge2" class="edge">
<title>Node2&#45;&gt;Node3</title>
<path fill="none" stroke="midnightblue" d="M358.15,-163C368.81,-163 379.69,-163 390.25,-163"/>
<polygon fill="midnightblue" stroke="midnightblue" points="358.02,-159.5 348.02,-163 358.02,-166.5 358.02,-159.5"/>
</g>
<!-- Node6 -->
<g id="node6" class="node">
<title>Node6</title>
<g id="a_node6"><a xlink:href="classls_1_1systems_1_1_discrete_system.html" target="_top" xlink:title=" ">
<polygon fill="none" stroke="#bfbfbf" points="390,-33 390,-63 545,-63 545,-33 390,-33"/>
<text text-anchor="start" x="398" y="-51" font-family="Helvetica,sans-Serif" font-size="10.00">ls::systems::DiscreteSystem</text>
<text text-anchor="middle" x="467.5" y="-40" font-family="Helvetica,sans-Serif" font-size="10.00">&lt; SYS &gt;</text>
</a>
</g>
</g>
<!-- Node5&#45;&gt;Node6 -->
<g id="edge5" class="edge">
<title>Node5&#45;&gt;Node6</title>
<path fill="none" stroke="midnightblue" d="M361.66,-48C371.03,-48 380.53,-48 389.78,-48"/>
<polygon fill="midnightblue" stroke="midnightblue" points="361.56,-44.5 351.56,-48 361.56,-51.5 361.56,-44.5"/>
</g>
</g>
</svg>
        <g id="navigator" transform="translate(0 0)" fill="#404254">
                <rect fill="#f2f5e9" fill-opacity="0.5" stroke="#606060" stroke-width=".5" x="0" y="0" width="60" height="60"/>
                <use id="zoomplus" xlink:href="#zoomPlus" x="17" y="9" onmousedown="handleZoom(evt,'in')"/>
                <use id="zoomminus" xlink:href="#zoomMin" x="42" y="9" onmousedown="handleZoom(evt,'out')"/>
                <use id="reset" xlink:href="#resetDef" x="30" y="36" onmousedown="handleReset()"/>
                <g id="arrowUp" xlink:href="#dirArrow" transform="translate(30 24)" onmousedown="handlePan(0,-1)">
                  <use xlink:href="#rim" fill="#404040">
                        <set attributeName="fill" to="#808080" begin="arrowUp.mouseover" end="arrowUp.mouseout"/>
                  </use>
                  <path fill="none" stroke="white" stroke-width="1.5" d="M0,-3.0v7 M-2.5,-0.5L0,-3.0L2.5,-0.5"/>
                </g>
                <g id="arrowRight" xlink:href="#dirArrow" transform="rotate(90) translate(36 -43)" onmousedown="handlePan(1,0)">
                  <use xlink:href="#rim" fill="#404040">
                        <set attributeName="fill" to="#808080" begin="arrowRight.mouseover" end="arrowRight.mouseout"/>
                  </use>
                  <path fill="none" stroke="white" stroke-width="1.5" d="M0,-3.0v7 M-2.5,-0.5L0,-3.0L2.5,-0.5"/>
                </g>
                <g id="arrowDown" xlink:href="#dirArrow" transform="rotate(180) translate(-30 -48)" onmousedown="handlePan(0,1)">
                  <use xlink:href="#rim" fill="#404040">
                        <set attributeName="fill" to="#808080" begin="arrowDown.mouseover" end="arrowDown.mouseout"/>
                  </use>
                  <path fill="none" stroke="white" stroke-width="1.5" d="M0,-3.0v7 M-2.5,-0.5L0,-3.0L2.5,-0.5"/>
                </g>
                <g id="arrowLeft" xlink:href="#dirArrow" transform="rotate(270) translate(-36 17)" onmousedown="handlePan(-1,0)">
                  <use xlink:href="#rim" fill="#404040">
                        <set attributeName="fill" to="#808080" begin="arrowLeft.mouseover" end="arrowLeft.mouseout"/>
                  </use>
                  <path fill="none" stroke="white" stroke-width="1.5" d="M0,-3.0v7 M-2.5,-0.5L0,-3.0L2.5,-0.5"/>
                </g>
        </g>
        <svg viewBox="0 0 15 15" width="100%" height="30px" preserveAspectRatio="xMaxYMin meet">
         <g id="arrow_out" transform="scale(0.3 0.3)">
          <a xlink:href="classls_1_1systems_1_1_system_stateless__inherit__graph_org.svg" target="_base">
           <rect id="button" ry="5" rx="5" y="6" x="6" height="38" width="38"
                fill="#f2f5e9" fill-opacity="0.5" stroke="#606060" stroke-width="1.0"/>
           <path id="arrow"
             d="M 11.500037,31.436501 C 11.940474,20.09759 22.043105,11.32322 32.158766,21.979434 L 37.068811,17.246167 C 37.068811,17.246167 37.088388,32 37.088388,32 L 22.160133,31.978069 C 22.160133,31.978069 26.997745,27.140456 26.997745,27.140456 C 18.528582,18.264221 13.291696,25.230495 11.500037,31.436501 z"
             style="fill:#404040;"/>
          </a>
         </g>
        </svg>
</svg>
