<?xml version="1.0" encoding="UTF-8" standalone="no"?>
<!DOCTYPE svg PUBLIC "-//W3C//DTD SVG 1.1//EN"
 "http://www.w3.org/Graphics/SVG/1.1/DTD/svg11.dtd">
<!-- Generated by graphviz version 2.43.0 (0)
 -->
<!-- Title: ls::blocks::aux::Executor Pages: 1 -->
<svg width="338pt" height="184pt"
 viewBox="0.00 0.00 338.00 184.00" xmlns="http://www.w3.org/2000/svg" xmlns:xlink="http://www.w3.org/1999/xlink">
<g id="graph0" class="graph" transform="scale(1 1) rotate(0) translate(4 180)">
<title>ls::blocks::aux::Executor</title>
<!-- Node1 -->
<g id="node1" class="node">
<title>Node1</title>
<g id="a_node1"><a xlink:title=" ">
<polygon fill="#bfbfbf" stroke="black" points="127,-0.5 127,-19.5 261,-19.5 261,-0.5 127,-0.5"/>
<text text-anchor="middle" x="194" y="-7.5" font-family="Helvetica,sans-Serif" font-size="10.00">ls::blocks::aux::Executor</text>
</a>
</g>
</g>
<!-- Node2 -->
<g id="node2" class="node">
<title>Node2</title>
<g id="a_node2"><a xlink:href="structls_1_1blocks_1_1_block_pack.html" target="_top" xlink:title=" ">
<polygon fill="none" stroke="#bfbfbf" points="8,-73 8,-92 126,-92 126,-73 8,-73"/>
<text text-anchor="middle" x="67" y="-80" font-family="Helvetica,sans-Serif" font-size="10.00">ls::blocks::BlockPack</text>
</a>
</g>
</g>
<!-- Node2&#45;&gt;Node1 -->
<g id="edge1" class="edge">
<title>Node2&#45;&gt;Node1</title>
<path fill="none" stroke="#9a32cd" stroke-dasharray="5,2" d="M91.32,-68C116.94,-53.78 156.52,-31.8 178.3,-19.72"/>
<polygon fill="#9a32cd" stroke="#9a32cd" points="89.62,-64.94 82.57,-72.86 93.01,-71.06 89.62,-64.94"/>
<text text-anchor="middle" x="168" y="-41" font-family="Helvetica,sans-Serif" font-size="10.00"> blockPack</text>
</g>
<!-- Node3 -->
<g id="node3" class="node">
<title>Node3</title>
<g id="a_node3"><a xlink:href="classls_1_1blocks_1_1aux_1_1_directed_graph.html" target="_top" xlink:title=" ">
<polygon fill="none" stroke="#bfbfbf" points="0,-145.5 0,-175.5 134,-175.5 134,-145.5 0,-145.5"/>
<text text-anchor="start" x="8" y="-163.5" font-family="Helvetica,sans-Serif" font-size="10.00">ls::blocks::aux::Directed</text>
<text text-anchor="middle" x="67" y="-152.5" font-family="Helvetica,sans-Serif" font-size="10.00">Graph</text>
</a>
</g>
</g>
<!-- Node3&#45;&gt;Node2 -->
<g id="edge2" class="edge">
<title>Node3&#45;&gt;Node2</title>
<path fill="none" stroke="#9a32cd" stroke-dasharray="5,2" d="M67,-135.17C67,-120.4 67,-102.45 67,-92.06"/>
<polygon fill="#9a32cd" stroke="#9a32cd" points="63.5,-135.2 67,-145.2 70.5,-135.21 63.5,-135.2"/>
<text text-anchor="middle" x="82.5" y="-119" font-family="Helvetica,sans-Serif" font-size="10.00"> graph</text>
</g>
<!-- Node4 -->
<g id="node4" class="node">
<title>Node4</title>
<g id="a_node4"><a xlink:href="structls_1_1blocks_1_1aux_1_1_strongly_connected_components_1_1_s_c_c_result.html" target="_top" xlink:title=" ">
<polygon fill="none" stroke="#bfbfbf" points="144,-67.5 144,-97.5 330,-97.5 330,-67.5 144,-67.5"/>
<text text-anchor="start" x="152" y="-85.5" font-family="Helvetica,sans-Serif" font-size="10.00">ls::blocks::aux::Strongly</text>
<text text-anchor="middle" x="237" y="-74.5" font-family="Helvetica,sans-Serif" font-size="10.00">ConnectedComponents::SCCResult</text>
</a>
</g>
</g>
<!-- Node4&#45;&gt;Node1 -->
<g id="edge3" class="edge">
<title>Node4&#45;&gt;Node1</title>
<path fill="none" stroke="#9a32cd" stroke-dasharray="5,2" d="M223.05,-58.63C215,-45.42 205.33,-29.57 199.42,-19.89"/>
<polygon fill="#9a32cd" stroke="#9a32cd" points="220.1,-60.52 228.3,-67.23 226.08,-56.87 220.1,-60.52"/>
<text text-anchor="middle" x="248" y="-41" font-family="Helvetica,sans-Serif" font-size="10.00"> components</text>
</g>
</g>
</svg>
