<?xml version="1.0" encoding="UTF-8" standalone="no"?>
<!DOCTYPE svg PUBLIC "-//W3C//DTD SVG 1.1//EN"
 "http://www.w3.org/Graphics/SVG/1.1/DTD/svg11.dtd">
<!-- Generated by graphviz version 2.43.0 (0)
 -->
<!-- Title: Graphical Class Hierarchy Pages: 1 -->
<svg width="302pt" height="330pt"
 viewBox="0.00 0.00 302.00 329.50" xmlns="http://www.w3.org/2000/svg" xmlns:xlink="http://www.w3.org/1999/xlink">
<g id="graph0" class="graph" transform="scale(1 1) rotate(0) translate(4 325.5)">
<title>Graphical Class Hierarchy</title>
<!-- Node0 -->
<g id="node1" class="node">
<title>Node0</title>
<g id="a_node1"><a xlink:title=" ">
<polygon fill="none" stroke="#bfbfbf" points="0,-154 0,-173 89,-173 89,-154 0,-154"/>
<text text-anchor="middle" x="44.5" y="-161" font-family="Helvetica,sans-Serif" font-size="10.00">std::false_type</text>
</a>
</g>
</g>
<!-- Node1 -->
<g id="node2" class="node">
<title>Node1</title>
<g id="a_node2"><a xlink:href="structalways__false.html" target="_top" xlink:title=" ">
<polygon fill="none" stroke="black" points="155,-302 155,-321 264,-321 264,-302 155,-302"/>
<text text-anchor="middle" x="209.5" y="-309" font-family="Helvetica,sans-Serif" font-size="10.00">always_false&lt; T &gt;</text>
</a>
</g>
</g>
<!-- Node0&#45;&gt;Node1 -->
<g id="edge1" class="edge">
<title>Node0&#45;&gt;Node1</title>
<path fill="none" stroke="midnightblue" d="M51.87,-182.73C62.37,-211.32 86.11,-264.67 125,-292.5 133.71,-298.73 144.12,-302.96 154.59,-305.82"/>
<polygon fill="midnightblue" stroke="midnightblue" points="55.1,-181.36 48.49,-173.08 48.49,-183.68 55.1,-181.36"/>
</g>
<!-- Node2 -->
<g id="node3" class="node">
<title>Node2</title>
<g id="a_node3"><a xlink:href="structis__binop__able__.html" target="_top" xlink:title=" ">
<polygon fill="none" stroke="black" points="151.5,-242 151.5,-283 267.5,-283 267.5,-242 151.5,-242"/>
<text text-anchor="start" x="159.5" y="-271" font-family="Helvetica,sans-Serif" font-size="10.00">is_binop_able_&lt; T,</text>
<text text-anchor="start" x="159.5" y="-260" font-family="Helvetica,sans-Serif" font-size="10.00"> U, BinaryOperation,</text>
<text text-anchor="middle" x="209.5" y="-249" font-family="Helvetica,sans-Serif" font-size="10.00"> Enable &gt;</text>
</a>
</g>
</g>
<!-- Node0&#45;&gt;Node2 -->
<g id="edge2" class="edge">
<title>Node0&#45;&gt;Node2</title>
<path fill="none" stroke="midnightblue" d="M61.45,-180.56C76.57,-195.91 100.56,-218.18 125,-232.5 133.11,-237.25 142.09,-241.44 151.08,-245.06"/>
<polygon fill="midnightblue" stroke="midnightblue" points="63.86,-178.02 54.39,-173.25 58.82,-182.88 63.86,-178.02"/>
</g>
<!-- Node3 -->
<g id="node4" class="node">
<title>Node3</title>
<g id="a_node4"><a xlink:href="structls_1_1aux_1_1_template_traits_1_1_binary_operators_1_1is_binopable_impl.html" target="_top" xlink:title=" ">
<polygon fill="none" stroke="black" points="127,-170.5 127,-222.5 292,-222.5 292,-170.5 127,-170.5"/>
<text text-anchor="start" x="135" y="-210.5" font-family="Helvetica,sans-Serif" font-size="10.00">ls::aux::TemplateTraits</text>
<text text-anchor="start" x="135" y="-199.5" font-family="Helvetica,sans-Serif" font-size="10.00">::BinaryOperators::isBinopable</text>
<text text-anchor="start" x="135" y="-188.5" font-family="Helvetica,sans-Serif" font-size="10.00">Impl&lt; T, U, BinaryOperation,</text>
<text text-anchor="middle" x="209.5" y="-177.5" font-family="Helvetica,sans-Serif" font-size="10.00"> Enable &gt;</text>
</a>
</g>
</g>
<!-- Node0&#45;&gt;Node3 -->
<g id="edge3" class="edge">
<title>Node0&#45;&gt;Node3</title>
<path fill="none" stroke="midnightblue" d="M99.05,-174.34C108,-176.15 117.47,-178.07 126.93,-179.99"/>
<polygon fill="midnightblue" stroke="midnightblue" points="99.68,-170.9 89.18,-172.34 98.29,-177.76 99.68,-170.9"/>
</g>
<!-- Node4 -->
<g id="node5" class="node">
<title>Node4</title>
<g id="a_node5"><a xlink:href="structls_1_1aux_1_1_template_traits_1_1_binary_operators_1_1parse_matrix_like.html" target="_top" xlink:title="Extracts data from matrix&#45;like types.">
<polygon fill="none" stroke="black" points="126,-110 126,-151 293,-151 293,-110 126,-110"/>
<text text-anchor="start" x="134" y="-139" font-family="Helvetica,sans-Serif" font-size="10.00">ls::aux::TemplateTraits</text>
<text text-anchor="start" x="134" y="-128" font-family="Helvetica,sans-Serif" font-size="10.00">::BinaryOperators::parseMatrix</text>
<text text-anchor="middle" x="209.5" y="-117" font-family="Helvetica,sans-Serif" font-size="10.00">Like&lt; T &gt;</text>
</a>
</g>
</g>
<!-- Node0&#45;&gt;Node4 -->
<g id="edge4" class="edge">
<title>Node0&#45;&gt;Node4</title>
<path fill="none" stroke="midnightblue" d="M99.08,-152.65C107.73,-150.9 116.85,-149.06 125.99,-147.21"/>
<polygon fill="midnightblue" stroke="midnightblue" points="98.29,-149.24 89.18,-154.66 99.68,-156.1 98.29,-149.24"/>
</g>
<!-- Node5 -->
<g id="node6" class="node">
<title>Node5</title>
<g id="a_node6"><a xlink:href="structls_1_1aux_1_1_template_traits_1_1_binary_operators_1_1sanitize_type_binop.html" target="_top" xlink:title="Sanitizes a binary operator return type.">
<polygon fill="none" stroke="black" points="125,-50 125,-91 294,-91 294,-50 125,-50"/>
<text text-anchor="start" x="133" y="-79" font-family="Helvetica,sans-Serif" font-size="10.00">ls::aux::TemplateTraits</text>
<text text-anchor="start" x="133" y="-68" font-family="Helvetica,sans-Serif" font-size="10.00">::BinaryOperators::sanitizeType</text>
<text text-anchor="middle" x="209.5" y="-57" font-family="Helvetica,sans-Serif" font-size="10.00">Binop&lt; T, BinOp &gt;</text>
</a>
</g>
</g>
<!-- Node0&#45;&gt;Node5 -->
<g id="edge5" class="edge">
<title>Node0&#45;&gt;Node5</title>
<path fill="none" stroke="midnightblue" d="M63.17,-146.7C78.53,-132.81 101.89,-113.35 125,-100.5 131.06,-97.13 137.57,-94.02 144.18,-91.18"/>
<polygon fill="midnightblue" stroke="midnightblue" points="60.49,-144.41 55.51,-153.76 65.24,-149.55 60.49,-144.41"/>
</g>
<!-- Node6 -->
<g id="node7" class="node">
<title>Node6</title>
<g id="a_node7"><a xlink:href="structls_1_1aux_1_1_template_traits_1_1is_instance.html" target="_top" xlink:title=" ">
<polygon fill="none" stroke="black" points="134.5,-0.5 134.5,-30.5 284.5,-30.5 284.5,-0.5 134.5,-0.5"/>
<text text-anchor="start" x="142.5" y="-18.5" font-family="Helvetica,sans-Serif" font-size="10.00">ls::aux::TemplateTraits</text>
<text text-anchor="middle" x="209.5" y="-7.5" font-family="Helvetica,sans-Serif" font-size="10.00">::isInstance&lt; class, class &gt;</text>
</a>
</g>
</g>
<!-- Node0&#45;&gt;Node6 -->
<g id="edge6" class="edge">
<title>Node0&#45;&gt;Node6</title>
<path fill="none" stroke="midnightblue" d="M52.83,-144.32C64.18,-117.19 88.56,-67.86 125,-40.5 130.2,-36.59 136.02,-33.29 142.08,-30.51"/>
<polygon fill="midnightblue" stroke="midnightblue" points="49.48,-143.27 49,-153.85 55.98,-145.88 49.48,-143.27"/>
</g>
</g>
</svg>
