<?xml version="1.0" encoding="UTF-8" standalone="no"?>
<!DOCTYPE svg PUBLIC "-//W3C//DTD SVG 1.1//EN"
 "http://www.w3.org/Graphics/SVG/1.1/DTD/svg11.dtd">
<!-- Generated by graphviz version 2.43.0 (0)
 -->
<!-- Title: Graphical Class Hierarchy Pages: 1 -->
<svg width="383pt" height="417pt"
 viewBox="0.00 0.00 383.00 417.00" xmlns="http://www.w3.org/2000/svg" xmlns:xlink="http://www.w3.org/1999/xlink">
<g id="graph0" class="graph" transform="scale(1 1) rotate(0) translate(4 413)">
<title>Graphical Class Hierarchy</title>
<!-- Node0 -->
<g id="node1" class="node">
<title>Node0</title>
<g id="a_node1"><a xlink:title=" ">
<polygon fill="none" stroke="#bfbfbf" points="0,-200.5 0,-219.5 84,-219.5 84,-200.5 0,-200.5"/>
<text text-anchor="middle" x="42" y="-207.5" font-family="Helvetica,sans-Serif" font-size="10.00">std::true_type</text>
</a>
</g>
</g>
<!-- Node1 -->
<g id="node2" class="node">
<title>Node1</title>
<g id="a_node2"><a xlink:href="struct_conjunction.html" target="_top" xlink:title=" ">
<polygon fill="none" stroke="black" points="196,-389.5 196,-408.5 299,-408.5 299,-389.5 196,-389.5"/>
<text text-anchor="middle" x="247.5" y="-396.5" font-family="Helvetica,sans-Serif" font-size="10.00">Conjunction&lt;... &gt;</text>
</a>
</g>
</g>
<!-- Node0&#45;&gt;Node1 -->
<g id="edge1" class="edge">
<title>Node0&#45;&gt;Node1</title>
<path fill="none" stroke="midnightblue" d="M45.79,-229.93C52.01,-266.18 70.56,-342.62 120,-380 141.44,-396.2 170.87,-401.34 195.95,-402.24"/>
<polygon fill="midnightblue" stroke="midnightblue" points="49.19,-229.01 44.19,-219.67 42.28,-230.09 49.19,-229.01"/>
</g>
<!-- Node2 -->
<g id="node3" class="node">
<title>Node2</title>
<g id="a_node3"><a xlink:href="structis__binop__able___3_01_t_00_01_u_00_01_bin_op_00_01void__t_3_01decltype_07std_1_1declval_3dbf74949c3d004b3a1e9d1c610010948.html" target="_top" xlink:title=" ">
<polygon fill="none" stroke="black" points="171.5,-307.5 171.5,-370.5 323.5,-370.5 323.5,-307.5 171.5,-307.5"/>
<text text-anchor="start" x="179.5" y="-358.5" font-family="Helvetica,sans-Serif" font-size="10.00">is_binop_able_&lt; T,</text>
<text text-anchor="start" x="179.5" y="-347.5" font-family="Helvetica,sans-Serif" font-size="10.00"> U, BinOp, void_t&lt; decltype</text>
<text text-anchor="start" x="179.5" y="-336.5" font-family="Helvetica,sans-Serif" font-size="10.00">(std::declval&lt; BinOp &gt;()</text>
<text text-anchor="start" x="179.5" y="-325.5" font-family="Helvetica,sans-Serif" font-size="10.00">(std::declval&lt; T &gt;(), std</text>
<text text-anchor="middle" x="247.5" y="-314.5" font-family="Helvetica,sans-Serif" font-size="10.00">::declval&lt; U &gt;()))&gt; &gt;</text>
</a>
</g>
</g>
<!-- Node0&#45;&gt;Node2 -->
<g id="edge2" class="edge">
<title>Node0&#45;&gt;Node2</title>
<path fill="none" stroke="midnightblue" d="M54.49,-228.2C67.91,-248.05 91.9,-279.48 120,-298 135.42,-308.16 153.56,-315.98 171.21,-321.92"/>
<polygon fill="midnightblue" stroke="midnightblue" points="57.34,-226.17 48.93,-219.73 51.49,-230.01 57.34,-226.17"/>
</g>
<!-- Node3 -->
<g id="node4" class="node">
<title>Node3</title>
<g id="a_node4"><a xlink:href="structls_1_1aux_1_1_template_traits_1_1_binary_operators_1_1is_binopable_impl_3_01_t_00_01_u_00_f0fc712b22abee6323ee4c89c80bed00.html" target="_top" xlink:title=" ">
<polygon fill="none" stroke="black" points="163.5,-214 163.5,-288 331.5,-288 331.5,-214 163.5,-214"/>
<text text-anchor="start" x="171.5" y="-276" font-family="Helvetica,sans-Serif" font-size="10.00">ls::aux::TemplateTraits</text>
<text text-anchor="start" x="171.5" y="-265" font-family="Helvetica,sans-Serif" font-size="10.00">::BinaryOperators::isBinopable</text>
<text text-anchor="start" x="171.5" y="-254" font-family="Helvetica,sans-Serif" font-size="10.00">Impl&lt; T, U, BinOp, void_t&lt;</text>
<text text-anchor="start" x="171.5" y="-243" font-family="Helvetica,sans-Serif" font-size="10.00"> decltype(::std::declval&lt; BinOp</text>
<text text-anchor="start" x="171.5" y="-232" font-family="Helvetica,sans-Serif" font-size="10.00"> &gt;()(::std::declval&lt; T &gt;(), ::std</text>
<text text-anchor="middle" x="247.5" y="-221" font-family="Helvetica,sans-Serif" font-size="10.00">::declval&lt; U &gt;()))&gt; &gt;</text>
</a>
</g>
</g>
<!-- Node0&#45;&gt;Node3 -->
<g id="edge3" class="edge">
<title>Node0&#45;&gt;Node3</title>
<path fill="none" stroke="midnightblue" d="M94.14,-220.3C115.1,-224.53 139.9,-229.52 163.34,-234.25"/>
<polygon fill="midnightblue" stroke="midnightblue" points="94.68,-216.84 84.18,-218.3 93.29,-223.7 94.68,-216.84"/>
</g>
<!-- Node4 -->
<g id="node5" class="node">
<title>Node4</title>
<g id="a_node5"><a xlink:href="structls_1_1aux_1_1_template_traits_1_1_binary_operators_1_1parse_matrix_like_3_01_t_wrapper_3_0d1a4674de72f5311aac75a4c37490c9a.html" target="_top" xlink:title="Extracts data from matrix&#45;like types.">
<polygon fill="none" stroke="black" points="156,-143 156,-195 339,-195 339,-143 156,-143"/>
<text text-anchor="start" x="164" y="-183" font-family="Helvetica,sans-Serif" font-size="10.00">ls::aux::TemplateTraits</text>
<text text-anchor="start" x="164" y="-172" font-family="Helvetica,sans-Serif" font-size="10.00">::BinaryOperators::parseMatrix</text>
<text text-anchor="start" x="164" y="-161" font-family="Helvetica,sans-Serif" font-size="10.00">Like&lt; TWrapper&lt; TScalar, TRows,</text>
<text text-anchor="middle" x="247.5" y="-150" font-family="Helvetica,sans-Serif" font-size="10.00"> TCols, TOtherParams... &gt; &gt;</text>
</a>
</g>
</g>
<!-- Node0&#45;&gt;Node4 -->
<g id="edge4" class="edge">
<title>Node0&#45;&gt;Node4</title>
<path fill="none" stroke="midnightblue" d="M94.23,-199.68C112.93,-195.91 134.68,-191.53 155.79,-187.28"/>
<polygon fill="midnightblue" stroke="midnightblue" points="93.29,-196.3 84.18,-201.7 94.68,-203.16 93.29,-196.3"/>
</g>
<!-- Node5 -->
<g id="node6" class="node">
<title>Node5</title>
<g id="a_node6"><a xlink:href="structls_1_1aux_1_1_template_traits_1_1_binary_operators_1_1sanitize_type_binop_3_01_t_wrapper_3faa0e8e2a6a5cb31918185116d67da5f.html" target="_top" xlink:title="Sanitizes lazy binary operation output.">
<polygon fill="none" stroke="black" points="120,-60.5 120,-123.5 375,-123.5 375,-60.5 120,-60.5"/>
<text text-anchor="start" x="128" y="-111.5" font-family="Helvetica,sans-Serif" font-size="10.00">ls::aux::TemplateTraits</text>
<text text-anchor="start" x="128" y="-100.5" font-family="Helvetica,sans-Serif" font-size="10.00">::BinaryOperators::sanitizeType</text>
<text text-anchor="start" x="128" y="-89.5" font-family="Helvetica,sans-Serif" font-size="10.00">Binop&lt; TWrapper&lt; TWrapperChild1</text>
<text text-anchor="start" x="128" y="-78.5" font-family="Helvetica,sans-Serif" font-size="10.00">&lt; TScalar, TInts... &gt;, TWrapperChild2</text>
<text text-anchor="middle" x="247.5" y="-67.5" font-family="Helvetica,sans-Serif" font-size="10.00">&lt; UScalar, UInts... &gt;, TWrapperInts... &gt;, BinOp &gt;</text>
</a>
</g>
</g>
<!-- Node0&#45;&gt;Node5 -->
<g id="edge5" class="edge">
<title>Node0&#45;&gt;Node5</title>
<path fill="none" stroke="midnightblue" d="M56.75,-192.33C70.93,-175.22 94.5,-149.63 120,-134 126.12,-130.25 132.61,-126.8 139.29,-123.62"/>
<polygon fill="midnightblue" stroke="midnightblue" points="53.79,-190.43 50.24,-200.41 59.24,-194.83 53.79,-190.43"/>
</g>
<!-- Node6 -->
<g id="node7" class="node">
<title>Node6</title>
<g id="a_node7"><a xlink:href="structls_1_1aux_1_1_template_traits_1_1is_instance_3_01_u_3_01_t_8_8_8_01_4_00_01_u_01_4.html" target="_top" xlink:title=" ">
<polygon fill="none" stroke="black" points="184.5,-0.5 184.5,-41.5 310.5,-41.5 310.5,-0.5 184.5,-0.5"/>
<text text-anchor="start" x="192.5" y="-29.5" font-family="Helvetica,sans-Serif" font-size="10.00">ls::aux::TemplateTraits</text>
<text text-anchor="start" x="192.5" y="-18.5" font-family="Helvetica,sans-Serif" font-size="10.00">::isInstance&lt; U&lt; T...</text>
<text text-anchor="middle" x="247.5" y="-7.5" font-family="Helvetica,sans-Serif" font-size="10.00"> &gt;, U &gt;</text>
</a>
</g>
</g>
<!-- Node0&#45;&gt;Node6 -->
<g id="edge6" class="edge">
<title>Node0&#45;&gt;Node6</title>
<path fill="none" stroke="midnightblue" d="M46.81,-190.31C54.44,-156.42 74.87,-87.22 120,-51 138.13,-36.45 162.15,-28.75 184.38,-24.75"/>
<polygon fill="midnightblue" stroke="midnightblue" points="43.33,-189.84 44.7,-200.35 50.18,-191.28 43.33,-189.84"/>
</g>
</g>
</svg>
