<?xml version="1.0" encoding="UTF-8" standalone="no"?>
<!DOCTYPE svg PUBLIC "-//W3C//DTD SVG 1.1//EN"
 "http://www.w3.org/Graphics/SVG/1.1/DTD/svg11.dtd">
<!-- Generated by graphviz version 2.43.0 (0)
 -->
<!-- Title: ls::cli::BasicCLI::BasicCLIOptions Pages: 1 -->
<svg width="338pt" height="262pt"
 viewBox="0.00 0.00 338.00 262.00" xmlns="http://www.w3.org/2000/svg" xmlns:xlink="http://www.w3.org/1999/xlink">
<g id="graph0" class="graph" transform="scale(1 1) rotate(0) translate(4 258)">
<title>ls::cli::BasicCLI::BasicCLIOptions</title>
<!-- Node1 -->
<g id="node1" class="node">
<title>Node1</title>
<g id="a_node1"><a xlink:title=" ">
<polygon fill="#bfbfbf" stroke="black" points="146.5,-0.5 146.5,-30.5 241.5,-30.5 241.5,-0.5 146.5,-0.5"/>
<text text-anchor="start" x="154.5" y="-18.5" font-family="Helvetica,sans-Serif" font-size="10.00">ls::cli::BasicCLI::</text>
<text text-anchor="middle" x="194" y="-7.5" font-family="Helvetica,sans-Serif" font-size="10.00">BasicCLIOptions</text>
</a>
</g>
</g>
<!-- Node2 -->
<g id="node2" class="node">
<title>Node2</title>
<g id="a_node2"><a xlink:href="classls_1_1blocks_1_1aux_1_1_executor.html" target="_top" xlink:title=" ">
<polygon fill="none" stroke="#bfbfbf" points="127,-78.5 127,-97.5 261,-97.5 261,-78.5 127,-78.5"/>
<text text-anchor="middle" x="194" y="-85.5" font-family="Helvetica,sans-Serif" font-size="10.00">ls::blocks::aux::Executor</text>
</a>
</g>
</g>
<!-- Node2&#45;&gt;Node1 -->
<g id="edge1" class="edge">
<title>Node2&#45;&gt;Node1</title>
<path fill="none" stroke="#9a32cd" stroke-dasharray="5,2" d="M194,-68.24C194,-56.41 194,-41.38 194,-30.58"/>
<polygon fill="#9a32cd" stroke="#9a32cd" points="190.5,-68.36 194,-78.36 197.5,-68.36 190.5,-68.36"/>
<text text-anchor="middle" x="202" y="-52" font-family="Helvetica,sans-Serif" font-size="10.00"> ex</text>
</g>
<!-- Node3 -->
<g id="node3" class="node">
<title>Node3</title>
<g id="a_node3"><a xlink:href="structls_1_1blocks_1_1_block_pack.html" target="_top" xlink:title=" ">
<polygon fill="none" stroke="#bfbfbf" points="8,-151 8,-170 126,-170 126,-151 8,-151"/>
<text text-anchor="middle" x="67" y="-158" font-family="Helvetica,sans-Serif" font-size="10.00">ls::blocks::BlockPack</text>
</a>
</g>
</g>
<!-- Node3&#45;&gt;Node2 -->
<g id="edge2" class="edge">
<title>Node3&#45;&gt;Node2</title>
<path fill="none" stroke="#9a32cd" stroke-dasharray="5,2" d="M91.32,-146C116.94,-131.78 156.52,-109.8 178.3,-97.72"/>
<polygon fill="#9a32cd" stroke="#9a32cd" points="89.62,-142.94 82.57,-150.86 93.01,-149.06 89.62,-142.94"/>
<text text-anchor="middle" x="168" y="-119" font-family="Helvetica,sans-Serif" font-size="10.00"> blockPack</text>
</g>
<!-- Node4 -->
<g id="node4" class="node">
<title>Node4</title>
<g id="a_node4"><a xlink:href="classls_1_1blocks_1_1aux_1_1_directed_graph.html" target="_top" xlink:title=" ">
<polygon fill="none" stroke="#bfbfbf" points="0,-223.5 0,-253.5 134,-253.5 134,-223.5 0,-223.5"/>
<text text-anchor="start" x="8" y="-241.5" font-family="Helvetica,sans-Serif" font-size="10.00">ls::blocks::aux::Directed</text>
<text text-anchor="middle" x="67" y="-230.5" font-family="Helvetica,sans-Serif" font-size="10.00">Graph</text>
</a>
</g>
</g>
<!-- Node4&#45;&gt;Node3 -->
<g id="edge3" class="edge">
<title>Node4&#45;&gt;Node3</title>
<path fill="none" stroke="#9a32cd" stroke-dasharray="5,2" d="M67,-213.17C67,-198.4 67,-180.45 67,-170.06"/>
<polygon fill="#9a32cd" stroke="#9a32cd" points="63.5,-213.2 67,-223.2 70.5,-213.21 63.5,-213.2"/>
<text text-anchor="middle" x="82.5" y="-197" font-family="Helvetica,sans-Serif" font-size="10.00"> graph</text>
</g>
<!-- Node5 -->
<g id="node5" class="node">
<title>Node5</title>
<g id="a_node5"><a xlink:href="structls_1_1blocks_1_1aux_1_1_strongly_connected_components_1_1_s_c_c_result.html" target="_top" xlink:title=" ">
<polygon fill="none" stroke="#bfbfbf" points="144,-145.5 144,-175.5 330,-175.5 330,-145.5 144,-145.5"/>
<text text-anchor="start" x="152" y="-163.5" font-family="Helvetica,sans-Serif" font-size="10.00">ls::blocks::aux::Strongly</text>
<text text-anchor="middle" x="237" y="-152.5" font-family="Helvetica,sans-Serif" font-size="10.00">ConnectedComponents::SCCResult</text>
</a>
</g>
</g>
<!-- Node5&#45;&gt;Node2 -->
<g id="edge4" class="edge">
<title>Node5&#45;&gt;Node2</title>
<path fill="none" stroke="#9a32cd" stroke-dasharray="5,2" d="M223.05,-136.63C215,-123.42 205.33,-107.57 199.42,-97.89"/>
<polygon fill="#9a32cd" stroke="#9a32cd" points="220.1,-138.52 228.3,-145.23 226.08,-134.87 220.1,-138.52"/>
<text text-anchor="middle" x="248" y="-119" font-family="Helvetica,sans-Serif" font-size="10.00"> components</text>
</g>
</g>
</svg>
